<svg xmlns="http://www.w3.org/2000/svg" version="1.1" xmlns:xlink="http://www.w3.org/1999/xlink" xmlns:svgjs="http://svgjs.com/svgjs" width="1280" height="720" preserveAspectRatio="none" viewBox="0 0 1280 720"><g mask="url(&quot;#SvgjsMask1071&quot;)" fill="none"><rect width="1280" height="720" x="0" y="0" fill="rgba(101, 22, 81, 1)"></rect><path d="M0,625.153C114.419,642.018,223.985,556.544,304.003,473.038C375.649,398.27,384.081,288.582,416.695,190.298C445.464,103.601,487.873,21.668,484.07,-69.599C480.01,-167.024,456.657,-266.705,394.52,-341.853C331.748,-417.768,239.173,-467.639,141.932,-483.377C50.208,-498.223,-33.12,-439.324,-125.07,-425.948C-237.357,-409.614,-376.933,-476.362,-457.254,-396.213C-536.204,-317.433,-472.756,-180.474,-482.422,-69.362C-491.405,33.901,-558.542,141.203,-512.065,233.852C-465.617,326.442,-333.7,328.28,-251.393,391.176C-158.553,462.12,-115.594,608.115,0,625.153" fill="#531242"></path><path d="M1280 1148.775C1385.102 1156.641 1494.995 1249.292 1586.113 1196.3220000000001 1676.388 1143.842 1646.791 1002.248 1693.068 908.642 1741.489 810.699 1866.603 745.372 1863.0410000000002 636.171 1859.495 527.461 1753.112 453.534 1675.732 377.096 1603.644 305.886 1529.382 229.17200000000003 1430.17 208.56900000000002 1333.859 188.56899999999996 1242.516 243.48700000000002 1147.08 267.316 1046.815 292.35 925.7819999999999 276.41 855.3969999999999 352.079 784.844 427.929 799.501 546.4739999999999 791.3589999999999 649.744 783.7180000000001 746.653 771.8910000000001 845.232 809.446 934.895 847.6469999999999 1026.098 911.9649999999999 1111.687 1001.983 1152.603 1088.101 1191.746 1185.667 1141.715 1280 1148.775" fill="#771a60"></path></g><defs><mask id="SvgjsMask1071"><rect width="1280" height="720" fill="#ffffff"></rect></mask></defs></svg>