<svg xmlns="http://www.w3.org/2000/svg" viewBox="0 0 203.23 54.59">
  <defs>
    <style>
      .cls-1 {
        fill: #e50914;
      }
    </style>
  </defs>
  <title>logo</title>
  <g id="Layer_2" data-name="Layer 2">
    <g id="Layer_1-2" data-name="Layer 1">
      <path class="cls-1" d="M161.39,50.22l-4.17-.3-.33,0V.56H166v50l-.38,0-4.19-.3M140,49q-5.53-.24-11-.42l-.35,0V.55h9.07V41.39l6.53.25,6.89.3h.34v7.61l-.37,0Q145.51,49.26,140,49ZM122.29,8,109,8V21.43l5,0,5.4,0h.35v7.44h-.36l-5.4,0-5,0v19.4h-4.54c-1.4,0-2.79,0-4.19,0H100V.54h22.82V8h-.48ZM66.82,19V.55h9.07V37.4a4.35,4.35,0,0,0,1,3.29,4,4,0,0,0,2.92.87,4.15,4.15,0,0,0,2.91-1,4.43,4.43,0,0,0,1.07-3.32V.55h8.6V36.71c0,3.88-1.11,6.94-3.3,9S83.8,49,79.63,49.07h-.54c-3.93,0-7-1-9-3s-3.16-4.82-3.24-8.5c0-.19,0-.35,0-.46Zm-17,10.6-1.9.07-.36,0V22.06h.34l5.84-.15,5.86-.13H60V37.31c0,3.95-1.11,7.1-3.3,9.34s-5.33,3.49-9.5,3.75c-.48,0-.94.05-1.38.05-3.53,0-6.27-.94-8.19-2.74s-3-4.44-3.23-7.85c0-.44,0-.89,0-1.33V12.8c0-4.09,1.12-7.3,3.32-9.49S43,0,47.16,0s7.35,1.11,9.5,3.19S60,8.44,60,12.4v5h-.35l-7.88.14h-.37V12A4.65,4.65,0,0,0,50.31,8.6a3.93,3.93,0,0,0-2.9-.95,4,4,0,0,0-2.92,1,4.87,4.87,0,0,0-1.06,3.48V38.53a4.39,4.39,0,0,0,1,3.35,3.78,3.78,0,0,0,2.9.79,4.24,4.24,0,0,0,2.93-1.12,4.76,4.76,0,0,0,1.07-3.45V29.56ZM22.6,51.86l-4.28.45-.3,0-.08-.28q-1.29-4.5-2.58-9c-.83-2.92-1.68-5.94-2.56-9.09l-2.56-9.21c-.66-2.4-1.34-4.84-2-7.34v36.1l-.31,0-5.05.66L.4,54.52l-.4,0V.61H11.11l.07.26c1.28,4.73,2.48,9.09,3.67,13.42l.54,2c.67,2.43,1.37,5,2.1,7.56.52,1.86,1.05,3.72,1.57,5.57V.59h8.16V51.41l-.32,0ZM193.28,3,194,.84l.09-.24h8.49l-.15.47-2.62,7.64c-.63,1.85-1.28,3.72-1.76,5.12-.88,2.6-1.82,5.26-2.75,7.91l-1.56,4.46Q194.9,29.57,196,33t2.34,6.94c.84,2.5,1.61,4.83,2.34,7s1.51,4.59,2.33,7.1l.18.53-.56-.07-4.42-.59c-1.36-.18-2.82-.37-4.4-.56l-.22,0-.07-.22c-.48-1.5-1-3.24-1.59-5-.64-2-1.28-4-1.81-5.66-.76-2.38-1.47-4.59-2.18-6.78L187,32.79l-.74,2.13q-1.23,3.48-2.43,6.95c-.57,1.62-1.14,3.25-1.7,4.87S181,50,180.47,51.59l-.1.26-.27,0-6.54-.63-1.29-.12-.46,0,.16-.43q1.23-3.26,2.34-6.22l2.34-6.26L179,31.8c.77-2.07,1.53-4.16,2.3-6.25-.72-2-1.43-4.07-2.15-6.1h0q-1.08-3.11-2.18-6.19c-.69-1.93-1.42-4-2.19-6.12-1.06-3-1.69-4.72-2.18-6.09l-.17-.48h9.42l.08.25q.76,2.34,1.55,4.69c.45,1.38.95,2.89,1.54,4.71.46,1.4,1,3,1.57,4.75l1.32,4,.84-2.49c.71-2.07,1.41-4.15,2.08-6.14C191.62,7.92,192.45,5.46,193.28,3Z"/>
    </g>
  </g>
</svg>
